<?xml version="1.0" encoding="UTF-8" standalone="no"?>
<svg
   width="128"
   height="128"
   viewBox="0 0 128 128"
   fill="none"
   version="1.1"
   id="svg18"
   sodipodi:docname="d554602b25dba929618ce6bedab44cbb.svg"
   xmlns:inkscape="http://www.inkscape.org/namespaces/inkscape"
   xmlns:sodipodi="http://sodipodi.sourceforge.net/DTD/sodipodi-0.dtd"
   xmlns="http://www.w3.org/2000/svg"
   xmlns:svg="http://www.w3.org/2000/svg">
  <defs
     id="defs22" />
  <sodipodi:namedview
     id="namedview20"
     pagecolor="#ffffff"
     bordercolor="#666666"
     borderopacity="1.0"
     inkscape:pageshadow="2"
     inkscape:pageopacity="0.0"
     inkscape:pagecheckerboard="0" />
  <path
     fill-rule="evenodd"
     clip-rule="evenodd"
     d="M23.438 46.0451C15.4641 49.8532 12.0871 59.4044 15.8952 67.3783L23.2214 82.7187C27.0295 90.6926 36.5807 94.0696 44.5546 90.2615L101.404 63.1116C109.378 59.3035 112.755 49.7523 108.947 41.7784L101.621 26.438C97.8128 18.4641 88.2616 15.0871 80.2877 18.8952L23.438 46.0451ZM30.8028 51.396C24.8224 54.2521 22.2896 61.4155 25.1457 67.3959L28.658 74.7504C31.5141 80.7308 38.6775 83.2636 44.6579 80.4075L94.4012 56.6514C100.382 53.7953 102.914 46.6319 100.058 40.6515L96.5461 33.2971C93.69 27.3166 86.5266 24.7839 80.5461 27.64L30.8028 51.396Z"
     fill="#323232"
     id="path2" />
  <path
     d="M64.2909 60.6C63.7054 60.8615 63.1109 61.0605 62.5074 61.1972C61.9111 61.3496 61.4062 61.4517 60.9927 61.5035L60.4626 60.3165L63.074 59.1502C63.9603 58.7544 64.5764 58.3274 64.9222 57.8692C65.2769 57.3881 65.3234 56.8547 65.0619 56.2691C64.8781 55.8576 64.5952 55.5854 64.213 55.4523C63.8238 55.3034 63.3731 55.2294 62.861 55.2303C62.3647 55.2242 61.8288 55.2357 61.2534 55.2649C60.6867 55.2712 60.1296 55.2352 59.5821 55.157C59.0434 55.0559 58.5441 54.8518 58.0842 54.5446C57.6172 54.2217 57.2353 53.7278 56.9384 53.0631C56.3518 51.7495 56.3552 50.6944 56.9486 49.8978C57.5508 49.0784 58.5957 48.3364 60.0834 47.672C60.6848 47.4034 61.2837 47.1929 61.8801 47.0405C62.4764 46.888 62.9769 46.7974 63.3817 46.7685L63.9118 47.9555L61.3004 49.1218C60.6515 49.4116 60.1664 49.7706 59.8451 50.1988C59.5238 50.6271 59.4692 51.0786 59.6812 51.5534C59.865 51.9649 60.1515 52.2451 60.5407 52.394C60.9229 52.527 61.3621 52.5966 61.8584 52.6028C62.3705 52.6019 62.9099 52.5983 63.4766 52.592C64.0521 52.5628 64.6092 52.5987 65.1479 52.6998C65.6954 52.778 66.1991 52.9707 66.659 53.2779C67.1189 53.585 67.5008 54.0789 67.8047 54.7594C68.2288 55.709 68.3675 56.5298 68.221 57.2217C68.0831 57.8907 67.6803 58.4978 67.0125 59.0428C66.3535 59.5649 65.4463 60.084 64.2909 60.6Z"
     fill="#323232"
     id="path4" />
  <rect
     x="39.8341"
     y="79.936"
     width="17.3392"
     height="5.46123"
     rx="2.73062"
     transform="rotate(-116.86 39.8341 79.936)"
     fill="#323232"
     id="rect6" />
  <rect
     x="45.8341"
     y="76.936"
     width="17.3392"
     height="5.46123"
     rx="2.73062"
     transform="rotate(-116.86 45.8341 76.936)"
     fill="#323232"
     id="rect8" />
  <rect
     x="83.8341"
     y="46.936"
     width="17.3392"
     height="5.46123"
     rx="2.73062"
     transform="rotate(-116.86 83.8341 46.936)"
     fill="#323232"
     id="rect10" />
  <rect
     x="89.8341"
     y="43.936"
     width="17.3392"
     height="5.46123"
     rx="2.73062"
     transform="rotate(-116.86 89.8341 43.936)"
     fill="#323232"
     id="rect12" />
  <rect
     x="63.4261"
     y="61.6032"
     width="15.5879"
     height="2.28957"
     rx="1.14478"
     transform="rotate(-106.7 63.4261 61.6032)"
     fill="#323232"
     id="rect14" />
  <path
     fill-rule="evenodd"
     clip-rule="evenodd"
     d="M67.0825 64.8569C73.0898 62.0387 75.675 54.8843 72.8569 48.8771C70.0387 42.8698 62.8843 40.2846 56.8771 43.1027C50.8698 45.9209 48.2846 53.0753 51.1027 59.0825C53.9209 65.0898 61.0753 67.675 67.0825 64.8569ZM65.7662 61.8105C69.9736 59.8367 71.7843 54.8257 69.8105 50.6183C67.8367 46.4108 62.8258 44.6001 58.6183 46.5739C54.4108 48.5477 52.6001 53.5587 54.5739 57.7661C56.5478 61.9736 61.5587 63.7843 65.7662 61.8105Z"
     fill="#323232"
     id="path16" />
</svg>
