<svg width="136" height="136" viewBox="0 0 136 136" fill="none" xmlns="http://www.w3.org/2000/svg">
<path fill-rule="evenodd" clip-rule="evenodd" d="M28.6124 47.5973C20.4205 50.9104 16.4655 60.2372 19.7786 68.4291L26.1526 84.1889C29.4658 92.3809 38.7925 96.3359 46.9844 93.0227L105.389 69.4015C113.58 66.0884 117.535 56.7616 114.222 48.5697L107.848 32.8099C104.535 24.6179 95.2084 20.6629 87.0165 23.9761L28.6124 47.5973ZM35.6361 53.3887C29.4921 55.8736 26.5259 62.8687 29.0107 69.0126L32.0665 76.5682C34.5514 82.7121 41.5465 85.6784 47.6904 83.1935L98.7939 62.525C104.938 60.0401 107.904 53.0451 105.419 46.9012L102.363 39.3456C99.8785 33.2017 92.8835 30.2354 86.7395 32.7203L35.6361 53.3887Z" fill="white"/>
<path d="M68.4984 64.6241C67.8979 64.8494 67.2924 65.0117 66.6817 65.1111C66.0772 65.2268 65.5669 65.2978 65.1511 65.3242L64.6945 64.107L67.3724 63.1026C68.2813 62.7618 68.9223 62.3733 69.2956 61.9371C69.679 61.4786 69.7581 60.9491 69.5329 60.3486C69.3746 59.9266 69.1088 59.6375 68.7356 59.4813C68.3562 59.3089 67.9109 59.2075 67.3996 59.1771C66.9046 59.1406 66.3691 59.1193 65.7929 59.1132C65.2269 59.0849 64.673 59.0149 64.1314 58.9033C63.5998 58.7695 63.114 58.5352 62.6737 58.2005C62.2274 57.8495 61.8764 57.3332 61.6207 56.6516C61.1155 55.3045 61.1835 54.2516 61.8245 53.4929C62.4757 52.7118 63.5641 52.0352 65.0896 51.463C65.7064 51.2317 66.317 51.0582 66.9215 50.9426C67.5261 50.8269 68.0312 50.767 68.437 50.763L68.8935 51.9802L66.2156 52.9845C65.5502 53.234 65.0441 53.5627 64.6972 53.9705C64.3503 54.3783 64.2681 54.8256 64.4507 55.3125C64.609 55.7345 64.8778 56.0317 65.2572 56.2041C65.6305 56.3603 66.0646 56.4566 66.5596 56.4931C67.0709 56.5235 67.6095 56.5529 68.1755 56.5813C68.7517 56.5874 69.3055 56.6573 69.837 56.7912C70.3787 56.9028 70.8697 57.1259 71.3099 57.4606C71.7502 57.7954 72.1011 58.3117 72.3629 59.0095C72.7281 59.9833 72.8164 60.811 72.6277 61.4927C72.4492 62.152 72.01 62.7332 71.3101 63.2364C70.6204 63.7172 69.6832 64.1798 68.4984 64.6241Z" fill="white"/>
<rect x="42.9044" y="82.4277" width="17.3392" height="5.46123" rx="2.73062" transform="rotate(-113.353 42.9044 82.4277)" fill="white"/>
<rect x="49.0767" y="79.8004" width="17.3392" height="5.46123" rx="2.73062" transform="rotate(-113.353 49.0767 79.8004)" fill="white"/>
<rect x="88.8408" y="52.1813" width="17.3392" height="5.46123" rx="2.73062" transform="rotate(-113.353 88.8408 52.1813)" fill="white"/>
<rect x="95.0131" y="49.554" width="17.3392" height="5.46123" rx="2.73062" transform="rotate(-113.353 95.0131 49.554)" fill="white"/>
<rect x="67.5738" y="65.5725" width="15.5879" height="2.28957" rx="1.14478" transform="rotate(-103.192 67.5738 65.5725)" fill="white"/>
<path fill-rule="evenodd" clip-rule="evenodd" d="M71.0243 69.0439C77.1927 66.5985 80.2108 59.6156 77.7655 53.4472C75.3201 47.2788 68.3372 44.2607 62.1688 46.7061C56.0004 49.1515 52.9823 56.1343 55.4277 62.3027C57.8731 68.4711 64.8559 71.4892 71.0243 69.0439ZM69.8968 65.9226C74.2171 64.2099 76.331 59.3191 74.6183 54.9988C72.9055 50.6784 68.0148 48.5646 63.6944 50.2773C59.3741 51.99 57.2602 56.8808 58.973 61.2011C60.6857 65.5215 65.5765 67.6354 69.8968 65.9226Z" fill="white"/>
</svg>
