<svg width="128" height="128" viewBox="0 0 128 128" fill="none" xmlns="http://www.w3.org/2000/svg">
<path fill-rule="evenodd" clip-rule="evenodd" d="M64 128C99.3462 128 128 99.3462 128 64C128 28.6538 99.3462 0 64 0C28.6538 0 0 28.6538 0 64C0 99.3462 28.6538 128 64 128ZM38.0779 27.0097L37.2504 26.875L22 106.571L31.0748 106.419L45.1307 30.9796C45.4162 30.9931 45.7063 31 46 31C46.048 31 46.0959 30.9998 46.1437 30.9994L47.9922 40.9206L56.6103 39.1206L54.1895 26.4795L53.7069 26.558C52.7667 25.0826 49.6723 24 46 24C41.9621 24 38.6228 25.3088 38.0779 27.0097ZM50.5 78.1429L53 73H41.125L38 79L50.5 78.1429ZM49.501 49.0186L60.1293 106.061L69.4509 106.174L58.1594 47.2101L49.501 49.0186ZM102.047 22.7645L93.3202 22.3756L93.1523 35.6464L101.948 35.6455L102.047 22.7645ZM92.3135 101.954L93.048 43.8895L101.885 43.8886L101.425 103.971L92.3135 101.954Z" fill="white"/>
</svg>
