<svg width="158" height="156" viewBox="0 0 158 156" fill="none" xmlns="http://www.w3.org/2000/svg">
<g clip-path="url(#clip0_1_15)">
<mask id="path-1-inside-1_1_15" fill="white">
<path fill-rule="evenodd" clip-rule="evenodd" d="M104.687 32.0156C113.863 26.6507 120.786 17.8769 126.908 8.75074C127.393 8.02739 128.51 8.21746 128.722 9.06227C130.008 14.1864 131.294 19.3104 132.58 24.4345C137.441 43.8 142.302 63.1661 147.13 82.5385C145.86 77.4786 144.59 72.4187 143.32 67.3588C143.108 66.514 141.991 66.3239 141.506 67.0473C135.384 76.1735 128.461 84.9472 119.285 90.3121C113.469 93.7171 106.647 95.0411 99.9276 94.0927C94.2999 93.3217 88.8583 91.4 83.4165 89.4781C78.0388 87.5789 72.6607 85.6795 67.1023 84.8906C60.5109 83.8423 53.8023 84.7835 47.8229 87.5209C39.1142 91.5029 32.0178 98.5579 25.7584 106.149C25.5575 106.393 25.4848 106.718 25.5612 107.024C26.8692 112.27 28.1787 117.515 29.4893 122.76C29.1209 121.29 28.7524 119.82 28.384 118.351C22.5673 95.1443 16.7507 71.9386 10.9631 48.7277C10.8867 48.4212 10.9594 48.0966 11.1603 47.8528C17.4197 40.2613 24.5161 33.2064 33.2248 29.2244C39.2042 26.4869 45.9128 25.5458 52.5042 26.5941C58.0626 27.383 63.4406 29.2823 68.8184 31.1816C74.2602 33.1034 79.7018 35.0252 85.3295 35.7962C92.0486 36.7446 98.8712 35.4206 104.687 32.0156Z"/>
</mask>
<path d="M104.687 32.0156L99.6395 23.3828L99.634 23.386L104.687 32.0156ZM132.58 24.4345L142.279 21.9999L142.279 21.9999L132.58 24.4345ZM147.13 82.5385L137.431 84.9731L156.833 80.1203L147.13 82.5385ZM119.285 90.3121L114.238 81.6793L114.232 81.6825L119.285 90.3121ZM99.9276 94.0927L101.325 84.1908L101.305 84.188L101.285 84.1852L99.9276 94.0927ZM83.4165 89.4781L80.0864 98.9073L80.0864 98.9073L83.4165 89.4781ZM67.1023 84.8906L65.5317 94.7665L65.6143 94.7796L65.6971 94.7914L67.1023 84.8906ZM47.8229 87.5209L51.9813 96.6153L51.9855 96.6133L47.8229 87.5209ZM29.4893 122.76L19.7894 125.192L39.191 120.336L29.4893 122.76ZM28.384 118.351L18.684 120.782L28.384 118.351ZM33.2248 29.2244L37.3832 38.3187L37.3874 38.3168L33.2248 29.2244ZM52.5042 26.5941L50.9336 36.47L51.0162 36.4831L51.099 36.4949L52.5042 26.5941ZM68.8184 31.1816L65.4883 40.6108L65.4883 40.6108L68.8184 31.1816ZM85.3295 35.7962L86.7272 25.8943L86.707 25.8915L86.6867 25.8887L85.3295 35.7962ZM141.506 67.0473L149.811 72.6177L141.506 67.0473ZM25.7584 106.149L18.0429 99.7877L25.7584 106.149ZM126.908 8.75074L135.213 14.3212L135.213 14.3212L126.908 8.75074ZM128.722 9.06227L119.023 11.4957L128.722 9.06227ZM118.603 3.18025C112.626 12.0911 106.748 19.2269 99.6395 23.3828L109.734 40.6485C120.978 34.0746 128.947 23.6628 135.213 14.3212L118.603 3.18025ZM142.279 21.9999C140.993 16.8758 139.707 11.7523 138.422 6.62886L119.023 11.4957C120.309 16.6205 121.595 21.7451 122.881 26.869L142.279 21.9999ZM156.833 80.1203C152.003 60.7383 147.14 41.3641 142.279 21.9999L122.881 26.869C127.742 46.2359 132.601 65.5938 137.427 84.9567L156.833 80.1203ZM156.829 80.1039C155.559 75.0439 154.289 69.9846 153.02 64.9254L133.621 69.7922C134.891 74.8528 136.161 79.9132 137.431 84.9731L156.829 80.1039ZM133.201 61.4768C127.224 70.3876 121.346 77.5234 114.238 81.6793L124.332 98.945C135.576 92.3711 143.545 81.9593 149.811 72.6177L133.201 61.4768ZM114.232 81.6825C110.388 83.9331 105.843 84.8285 101.325 84.1908L98.5299 103.995C107.451 105.254 116.55 103.501 124.338 98.9417L114.232 81.6825ZM101.285 84.1852C96.8407 83.5764 92.3649 82.033 86.7466 80.0489L80.0864 98.9073C85.3518 100.767 91.7591 103.067 98.5704 104L101.285 84.1852ZM86.7466 80.0489C81.5408 78.2104 75.2203 75.9426 68.5075 74.9898L65.6971 94.7914C70.1011 95.4164 74.5367 96.9474 80.0864 98.9073L86.7466 80.0489ZM68.6729 75.0147C60.1245 73.6552 51.4221 74.875 43.6603 78.4284L51.9855 96.6133C56.1824 94.6919 60.8972 94.0295 65.5317 94.7665L68.6729 75.0147ZM43.6645 78.4265C32.8667 83.3638 24.5981 91.8374 18.0429 99.7877L33.474 112.511C39.4375 105.278 45.3617 99.642 51.9813 96.6153L43.6645 78.4265ZM15.8583 109.444C17.1668 114.691 18.4766 119.938 19.7876 125.185L39.191 120.336C37.8808 115.092 36.5717 109.849 35.2641 104.605L15.8583 109.444ZM18.684 120.782C19.0525 122.252 19.4209 123.722 19.7894 125.192L39.1893 120.329C38.8208 118.859 38.4524 117.389 38.0839 115.919L18.684 120.782ZM1.26022 51.1472C7.04955 74.3649 12.8676 97.5766 18.684 120.782L38.0839 115.919C32.267 92.712 26.4519 69.5122 20.666 46.3083L1.26022 51.1472ZM29.0664 20.13C18.2686 25.0672 9.99999 33.5409 3.44478 41.4912L18.8759 54.2145C24.8394 46.9818 30.7636 41.3455 37.3832 38.3187L29.0664 20.13ZM54.0748 16.7182C45.5264 15.3587 36.824 16.5785 29.0622 20.1319L37.3874 38.3168C41.5843 36.3954 46.2991 35.7329 50.9336 36.47L54.0748 16.7182ZM72.1485 21.7523C66.9427 19.9138 60.6222 17.6461 53.9094 16.6933L51.099 36.4949C55.503 37.1199 59.9386 38.6508 65.4883 40.6108L72.1485 21.7523ZM86.6867 25.8887C82.2426 25.2799 77.7668 23.7365 72.1485 21.7523L65.4883 40.6108C70.7537 42.4704 77.1609 44.7705 83.9723 45.7036L86.6867 25.8887ZM99.634 23.386C95.7901 25.6366 91.2447 26.532 86.7272 25.8943L83.9318 45.698C92.8526 46.9572 101.952 45.2046 109.739 40.6452L99.634 23.386ZM20.666 46.3083C21.3521 49.0597 20.7043 51.997 18.8759 54.2145L3.44478 41.4912C1.2145 44.1962 0.421317 47.7828 1.26022 51.1472L20.666 46.3083ZM153.02 64.9254C150.675 55.5792 138.456 53.6418 133.201 61.4768L149.811 72.6177C145.526 79.006 135.542 77.4487 133.621 69.7922L153.02 64.9254ZM18.0429 99.7877C15.8126 102.493 15.0194 106.079 15.8583 109.444L35.2641 104.605C35.9502 107.356 35.3024 110.293 33.474 112.511L18.0429 99.7877ZM135.213 14.3212C130.928 20.7095 120.944 19.1521 119.023 11.4957L138.422 6.62886C136.077 -2.71722 123.858 -4.65474 118.603 3.18025L135.213 14.3212Z" fill="white" mask="url(#path-1-inside-1_1_15)"/>
<mask id="path-3-inside-2_1_15" fill="white">
<path fill-rule="evenodd" clip-rule="evenodd" d="M115.715 76.0555C125.736 71.1569 133.472 63.5213 140.429 55.8171C141.501 60.087 142.574 64.3568 143.646 68.6267C146.94 81.7364 150.234 94.8465 153.501 107.962C153.053 106.181 152.606 104.4 152.158 102.619C151.086 98.3488 150.013 94.079 148.941 89.8091C141.984 97.5133 134.248 105.149 124.227 110.048C118.287 112.955 111.489 114.377 104.938 114.101C99.4495 113.886 94.218 112.804 88.9863 111.721C83.8161 110.65 78.6457 109.58 73.2268 109.348C66.8079 108.989 60.1466 110.119 54.0879 112.54C45.1139 116.122 37.5776 121.963 30.847 128.131C32.0602 133.004 33.2758 137.878 34.4932 142.75C30.4307 126.548 26.3695 110.346 22.335 94.1386C29.0656 87.9714 36.602 82.1297 45.5759 78.5478C51.6346 76.1271 58.296 74.9973 64.7148 75.3563C70.1337 75.5882 75.3041 76.6584 80.4743 77.7286C85.7061 78.8115 90.9375 79.8944 96.4258 80.1085C102.977 80.385 109.775 78.9628 115.715 76.0555Z"/>
</mask>
<path fill-rule="evenodd" clip-rule="evenodd" d="M115.715 76.0555C125.736 71.1569 133.472 63.5213 140.429 55.8171C141.501 60.087 142.574 64.3568 143.646 68.6267C146.94 81.7364 150.234 94.8465 153.501 107.962C153.053 106.181 152.606 104.4 152.158 102.619C151.086 98.3488 150.013 94.079 148.941 89.8091C141.984 97.5133 134.248 105.149 124.227 110.048C118.287 112.955 111.489 114.377 104.938 114.101C99.4495 113.886 94.218 112.804 88.9863 111.721C83.8161 110.65 78.6457 109.58 73.2268 109.348C66.8079 108.989 60.1466 110.119 54.0879 112.54C45.1139 116.122 37.5776 121.963 30.847 128.131C32.0602 133.004 33.2758 137.878 34.4932 142.75C30.4307 126.548 26.3695 110.346 22.335 94.1386C29.0656 87.9714 36.602 82.1297 45.5759 78.5478C51.6346 76.1271 58.296 74.9973 64.7148 75.3563C70.1337 75.5882 75.3041 76.6584 80.4743 77.7286C85.7061 78.8115 90.9375 79.8944 96.4258 80.1085C102.977 80.385 109.775 78.9628 115.715 76.0555Z" fill="white"/>
<path d="M140.429 55.8171L149.158 53.626L145.053 37.2686L133.75 49.7852L140.429 55.8171ZM115.715 76.0555L111.762 67.9699L111.758 67.9718L115.715 76.0555ZM143.646 68.6267L152.375 66.4337L152.375 66.4337L143.646 68.6267ZM153.501 107.962L144.772 110.155L162.234 105.787L153.501 107.962ZM152.158 102.619L143.43 104.812L143.43 104.812L152.158 102.619ZM148.941 89.8091L157.67 87.618L153.565 71.2607L142.262 83.7772L148.941 89.8091ZM124.227 110.048L120.274 101.962L120.27 101.964L124.227 110.048ZM104.938 114.101L105.317 105.109L105.303 105.108L105.289 105.107L104.938 114.101ZM88.9863 111.721L90.8106 102.907L90.8106 102.907L88.9863 111.721ZM73.2268 109.348L72.7243 118.334L72.7831 118.338L72.842 118.34L73.2268 109.348ZM54.0879 112.54L57.4242 120.899L57.4271 120.897L54.0879 112.54ZM30.847 128.131L24.7668 121.495L20.8207 125.111L22.1136 130.305L30.847 128.131ZM34.4932 142.75L25.7634 144.939L43.2248 140.569L34.4932 142.75ZM22.335 94.1386L16.2548 87.5031L12.3087 91.1189L13.6016 96.3127L22.335 94.1386ZM45.5759 78.5478L48.9122 86.9066L48.9151 86.9054L45.5759 78.5478ZM64.7148 75.3563L64.2123 84.3422L64.2711 84.3455L64.33 84.348L64.7148 75.3563ZM80.4743 77.7286L78.65 86.5418L78.65 86.5418L80.4743 77.7286ZM96.4258 80.1085L96.8053 71.1165L96.791 71.1159L96.7766 71.1153L96.4258 80.1085ZM133.75 49.7852C126.949 57.3157 120.164 63.8627 111.762 67.9699L119.667 84.1412C131.307 78.4511 139.995 69.7269 147.109 61.849L133.75 49.7852ZM152.375 66.4337C151.302 62.1637 150.23 57.8949 149.158 53.626L131.7 58.0081C132.772 62.2792 133.845 66.5499 134.918 70.8196L152.375 66.4337ZM162.234 105.787C158.964 92.6609 155.668 79.542 152.375 66.4337L134.918 70.8196C138.212 83.9308 141.503 97.0322 144.768 110.138L162.234 105.787ZM162.23 105.77C161.782 103.988 161.335 102.207 160.887 100.426L143.43 104.812C143.877 106.593 144.325 108.374 144.772 110.155L162.23 105.77ZM160.887 100.426C159.814 96.1558 158.742 91.8869 157.67 87.618L140.212 92.0002C141.284 96.2712 142.357 100.542 143.43 104.812L160.887 100.426ZM142.262 83.7772C135.461 91.3077 128.676 97.8547 120.274 101.962L128.179 118.133C139.819 112.443 148.507 103.719 155.621 95.841L142.262 83.7772ZM120.27 101.964C115.673 104.214 110.365 105.322 105.317 105.109L104.558 123.093C112.612 123.432 120.9 121.696 128.183 118.131L120.27 101.964ZM105.289 105.107C100.663 104.927 96.151 104.013 90.8106 102.907L87.162 120.534C92.2851 121.594 98.2356 122.846 104.587 123.094L105.289 105.107ZM90.8106 102.907C85.7469 101.859 79.8738 100.624 73.6116 100.357L72.842 118.34C77.4176 118.536 81.8854 119.442 87.162 120.534L90.8106 102.907ZM73.7293 100.362C65.9528 99.9275 57.9827 101.292 50.7488 104.182L57.4271 120.897C62.3105 118.946 67.6631 118.051 72.7243 118.334L73.7293 100.362ZM50.7516 104.181C40.2979 108.354 31.8173 115.035 24.7668 121.495L36.9273 134.766C43.3378 128.892 49.93 123.89 57.4242 120.899L50.7516 104.181ZM22.1136 130.305C23.3275 135.181 24.5437 140.057 25.7615 144.932L43.2248 140.569C42.008 135.698 40.793 130.828 39.5805 125.957L22.1136 130.305ZM13.6016 96.3127C17.6382 112.529 21.7011 128.738 25.7634 144.939L43.2229 140.562C39.1603 124.359 35.1009 108.164 31.0685 91.9646L13.6016 96.3127ZM42.2396 70.189C31.7859 74.3615 23.3053 81.0426 16.2548 87.5031L28.4153 100.774C34.8258 94.9002 41.418 89.8978 48.9122 86.9066L42.2396 70.189ZM65.2173 66.3703C57.4408 65.9354 49.4708 67.2999 42.2368 70.1902L48.9151 86.9054C53.7985 84.9543 59.1511 84.0592 64.2123 84.3422L65.2173 66.3703ZM82.2986 68.9154C77.2349 67.8673 71.3618 66.6325 65.0996 66.3645L64.33 84.348C68.9056 84.5438 73.3734 85.4495 78.65 86.5418L82.2986 68.9154ZM96.7766 71.1153C92.1514 70.9349 87.639 70.0209 82.2986 68.9154L78.65 86.5418C83.7731 87.6022 89.7236 88.8539 96.075 89.1017L96.7766 71.1153ZM111.758 67.9718C107.161 70.2219 101.853 71.3295 96.8053 71.1165L96.0464 89.1005C104.1 89.4404 112.388 87.7037 119.671 84.1392L111.758 67.9718Z" fill="white" mask="url(#path-3-inside-2_1_15)"/>
</g>
<defs>
<clipPath id="clip0_1_15">
<rect width="130" height="128" fill="white" transform="translate(0.400528 31.7061) rotate(-14.0584)"/>
</clipPath>
</defs>
</svg>
